<svg xmlns="http://www.w3.org/2000/svg" xmlns:xlink="http://www.w3.org/1999/xlink" width="500" zoomAndPan="magnify" viewBox="0 0 375 374.999991" height="500" preserveAspectRatio="xMidYMid meet" version="1.0"><defs><clipPath id="f06da9a15d"><path d="M 0 0 L 112.5 0 L 112.5 112.5 L 0 112.5 Z M 0 0 " clip-rule="nonzero"/></clipPath><clipPath id="ddf7d413be"><path d="M 17.25 0 L 95.25 0 C 99.824219 0 104.210938 1.816406 107.449219 5.050781 C 110.683594 8.289062 112.5 12.675781 112.5 17.25 L 112.5 95.25 C 112.5 99.824219 110.683594 104.210938 107.449219 107.449219 C 104.210938 110.683594 99.824219 112.5 95.25 112.5 L 17.25 112.5 C 12.675781 112.5 8.289062 110.683594 5.050781 107.449219 C 1.816406 104.210938 0 99.824219 0 95.25 L 0 17.25 C 0 12.675781 1.816406 8.289062 5.050781 5.050781 C 8.289062 1.816406 12.675781 0 17.25 0 Z M 17.25 0 " clip-rule="nonzero"/></clipPath><clipPath id="96e33009ee"><path d="M 0 0 L 112.5 0 L 112.5 112.5 L 0 112.5 Z M 0 0 " clip-rule="nonzero"/></clipPath><clipPath id="827282f5bb"><path d="M 17.25 0 L 95.25 0 C 99.824219 0 104.210938 1.816406 107.449219 5.050781 C 110.683594 8.289062 112.5 12.675781 112.5 17.25 L 112.5 95.25 C 112.5 99.824219 110.683594 104.210938 107.449219 107.449219 C 104.210938 110.683594 99.824219 112.5 95.25 112.5 L 17.25 112.5 C 12.675781 112.5 8.289062 110.683594 5.050781 107.449219 C 1.816406 104.210938 0 99.824219 0 95.25 L 0 17.25 C 0 12.675781 1.816406 8.289062 5.050781 5.050781 C 8.289062 1.816406 12.675781 0 17.25 0 Z M 17.25 0 " clip-rule="nonzero"/></clipPath><clipPath id="1553236607"><rect x="0" width="113" y="0" height="113"/></clipPath><clipPath id="7115bcf50e"><path d="M 74.878906 45.105469 L 299.878906 45.105469 L 299.878906 330 L 74.878906 330 Z M 74.878906 45.105469 " clip-rule="nonzero"/></clipPath></defs><g clip-path="url(#f06da9a15d)"><g clip-path="url(#ddf7d413be)"><g transform="matrix(1, 0, 0, 1, 0, 0)"><g clip-path="url(#1553236607)"><g clip-path="url(#96e33009ee)"><g clip-path="url(#827282f5bb)"><path fill="#ffffff" d="M 0 0 L 112.5 0 L 112.5 112.5 L 0 112.5 Z M 0 0 " fill-opacity="1" fill-rule="nonzero"/></g></g></g></g></g></g><g clip-path="url(#7115bcf50e)"><path fill="#000000" d="M 295.144531 45.320312 L 79.613281 45.320312 C 77.007812 45.320312 74.878906 47.457031 74.878906 50.0625 L 74.878906 325.144531 C 74.878906 327.753906 77.007812 329.886719 79.613281 329.886719 L 234.542969 329.886719 C 236.023438 329.886719 237.445312 329.175781 238.332031 327.992188 L 298.929688 248.3125 C 299.582031 247.484375 299.878906 246.476562 299.878906 245.46875 L 299.878906 50.0625 C 299.878906 47.457031 297.746094 45.320312 295.144531 45.320312 Z M 234.722656 317.082031 L 234.722656 268.230469 C 234.722656 260.40625 241.113281 254.003906 248.925781 254.003906 L 282.714844 254.003906 Z M 290.410156 243.867188 L 289.9375 244.519531 L 248.925781 244.519531 C 235.847656 244.519531 225.253906 255.128906 225.253906 268.230469 L 225.253906 320.402344 L 84.347656 320.402344 L 84.347656 54.804688 L 290.410156 54.804688 Z M 290.410156 243.867188 " fill-opacity="1" fill-rule="nonzero"/></g><path fill="#000000" d="M 149.503906 301.433594 C 172.996094 301.433594 192.113281 282.28125 192.113281 258.746094 C 192.113281 235.210938 172.996094 216.0625 149.503906 216.0625 C 126.007812 216.0625 106.894531 235.210938 106.894531 258.746094 C 106.894531 282.28125 126.007812 301.433594 149.503906 301.433594 Z M 149.503906 225.546875 C 167.789062 225.546875 182.644531 240.425781 182.644531 258.746094 C 182.644531 277.066406 167.789062 291.945312 149.503906 291.945312 C 131.21875 291.945312 116.363281 277.066406 116.363281 258.746094 C 116.363281 240.425781 131.21875 225.546875 149.503906 225.546875 Z M 149.503906 225.546875 " fill-opacity="1" fill-rule="nonzero"/><path fill="#000000" d="M 111.628906 130.691406 L 263.128906 130.691406 L 263.128906 140.175781 L 111.628906 140.175781 Z M 111.628906 130.691406 " fill-opacity="1" fill-rule="nonzero"/><path fill="#000000" d="M 111.628906 102.234375 L 263.128906 102.234375 L 263.128906 111.71875 L 111.628906 111.71875 Z M 111.628906 102.234375 " fill-opacity="1" fill-rule="nonzero"/><path fill="#000000" d="M 111.628906 159.148438 L 263.128906 159.148438 L 263.128906 168.632812 L 111.628906 168.632812 Z M 111.628906 159.148438 " fill-opacity="1" fill-rule="nonzero"/><path fill="#000000" d="M 111.628906 187.605469 L 263.128906 187.605469 L 263.128906 197.089844 L 111.628906 197.089844 Z M 111.628906 187.605469 " fill-opacity="1" fill-rule="nonzero"/><path fill="#000000" d="M 141.871094 281.511719 C 142.460938 281.808594 143.054688 282.046875 143.703125 282.222656 L 143.703125 285.660156 C 143.703125 287.558594 145.242188 289.101562 147.136719 289.101562 C 149.03125 289.101562 150.570312 287.558594 150.570312 285.660156 L 150.570312 282.222656 C 151.21875 282.046875 151.8125 281.808594 152.402344 281.511719 C 156.425781 279.496094 158.972656 275.40625 158.972656 270.898438 C 158.972656 265.03125 155.71875 259.695312 150.449219 257.085938 L 145.714844 254.714844 C 143.585938 253.648438 142.222656 251.453125 142.222656 249.082031 C 142.222656 246.832031 143.761719 244.875 145.953125 244.28125 C 146.722656 244.101562 147.550781 244.101562 148.320312 244.28125 C 150.507812 244.816406 152.046875 246.769531 152.046875 249.082031 L 152.046875 251.097656 C 152.046875 252.996094 153.585938 254.539062 155.480469 254.539062 C 157.375 254.539062 158.914062 252.996094 158.914062 251.097656 L 158.914062 249.082031 C 158.914062 243.867188 155.480469 239.242188 150.507812 237.761719 L 150.507812 233.789062 C 150.507812 231.890625 148.972656 230.347656 147.078125 230.347656 C 145.183594 230.347656 143.644531 231.890625 143.644531 233.789062 L 143.644531 237.761719 C 138.671875 239.300781 135.242188 243.867188 135.242188 249.082031 C 135.242188 254.121094 138.023438 258.6875 142.519531 260.941406 L 147.253906 263.3125 C 150.15625 264.734375 151.929688 267.699219 151.929688 270.898438 C 151.929688 272.796875 150.863281 274.457031 149.207031 275.289062 C 147.847656 276 146.191406 276 144.828125 275.289062 C 143.171875 274.457031 142.105469 272.738281 142.105469 270.898438 C 142.105469 269.003906 140.566406 267.460938 138.671875 267.460938 C 136.78125 267.460938 135.242188 269.003906 135.242188 270.898438 L 135.242188 271.847656 C 135.242188 272.203125 135.300781 272.621094 135.417969 272.914062 C 136.128906 276.652344 138.4375 279.792969 141.871094 281.511719 Z M 141.871094 281.511719 " fill-opacity="1" fill-rule="nonzero"/></svg>