<svg xmlns="http://www.w3.org/2000/svg" xmlns:xlink="http://www.w3.org/1999/xlink" width="500" zoomAndPan="magnify" viewBox="0 0 375 374.999991" height="500" preserveAspectRatio="xMidYMid meet" version="1.0"><defs><clipPath id="d64ef1d5fb"><path d="M 0 0 L 112.5 0 L 112.5 112.5 L 0 112.5 Z M 0 0 " clip-rule="nonzero"/></clipPath><clipPath id="e94bfef564"><path d="M 17.25 0 L 95.25 0 C 99.824219 0 104.210938 1.816406 107.449219 5.050781 C 110.683594 8.289062 112.5 12.675781 112.5 17.25 L 112.5 95.25 C 112.5 99.824219 110.683594 104.210938 107.449219 107.449219 C 104.210938 110.683594 99.824219 112.5 95.25 112.5 L 17.25 112.5 C 12.675781 112.5 8.289062 110.683594 5.050781 107.449219 C 1.816406 104.210938 0 99.824219 0 95.25 L 0 17.25 C 0 12.675781 1.816406 8.289062 5.050781 5.050781 C 8.289062 1.816406 12.675781 0 17.25 0 Z M 17.25 0 " clip-rule="nonzero"/></clipPath><clipPath id="4f5ff4f012"><path d="M 0 0 L 112.5 0 L 112.5 112.5 L 0 112.5 Z M 0 0 " clip-rule="nonzero"/></clipPath><clipPath id="ee59f8a7dc"><path d="M 17.25 0 L 95.25 0 C 99.824219 0 104.210938 1.816406 107.449219 5.050781 C 110.683594 8.289062 112.5 12.675781 112.5 17.25 L 112.5 95.25 C 112.5 99.824219 110.683594 104.210938 107.449219 107.449219 C 104.210938 110.683594 99.824219 112.5 95.25 112.5 L 17.25 112.5 C 12.675781 112.5 8.289062 110.683594 5.050781 107.449219 C 1.816406 104.210938 0 99.824219 0 95.25 L 0 17.25 C 0 12.675781 1.816406 8.289062 5.050781 5.050781 C 8.289062 1.816406 12.675781 0 17.25 0 Z M 17.25 0 " clip-rule="nonzero"/></clipPath><clipPath id="00339385af"><rect x="0" width="113" y="0" height="113"/></clipPath><clipPath id="23ca42dd0b"><path d="M 19.671875 71.070312 L 355.671875 71.070312 L 355.671875 303.570312 L 19.671875 303.570312 Z M 19.671875 71.070312 " clip-rule="nonzero"/></clipPath></defs><g clip-path="url(#d64ef1d5fb)"><g clip-path="url(#e94bfef564)"><g transform="matrix(1, 0, 0, 1, 0, 0)"><g clip-path="url(#00339385af)"><g clip-path="url(#4f5ff4f012)"><g clip-path="url(#ee59f8a7dc)"><path fill="#ffffff" d="M 0 0 L 112.5 0 L 112.5 112.5 L 0 112.5 Z M 0 0 " fill-opacity="1" fill-rule="nonzero"/></g></g></g></g></g></g><g clip-path="url(#23ca42dd0b)"><path fill="#000000" d="M 153.132812 303.558594 C 144.710938 303.558594 136.96875 297.289062 134.316406 288.308594 C 134.214844 287.917969 134.164062 287.519531 134.171875 287.113281 C 134.171875 286.140625 134.171875 285.917969 133.195312 285.917969 L 132.636719 285.917969 C 131.378906 286.0625 130.117188 286.136719 128.851562 286.140625 C 117.136719 286.140625 109.117188 279.59375 106.851562 268.1875 C 106.328125 265.554688 105.488281 265.417969 104.164062 265.417969 L 101.703125 265.484375 C 89.605469 265.484375 81.363281 258.28125 79.671875 246.203125 C 79.390625 244.238281 78.921875 244.238281 76.949219 244.238281 C 69.199219 244.171875 62.570312 240.886719 58.75 235.300781 C 54.929688 229.714844 54.390625 222.332031 57.179688 215.191406 C 58.367188 212.164062 57.574219 211.328125 55.175781 209.875 C 46.53125 204.636719 37.839844 199.160156 29.417969 193.867188 L 24.421875 190.726562 L 23.582031 190.222656 C 22.148438 189.375 20.511719 188.382812 19.90625 186.480469 C 19.757812 186.078125 19.671875 185.660156 19.65625 185.226562 C 19.636719 184.796875 19.691406 184.375 19.808594 183.957031 C 19.925781 183.542969 20.109375 183.15625 20.351562 182.800781 C 20.59375 182.441406 20.886719 182.132812 21.230469 181.867188 C 21.992188 181.222656 22.871094 180.890625 23.871094 180.875 C 24.8125 180.898438 25.675781 181.164062 26.460938 181.679688 C 27.578125 182.359375 28.699219 182.984375 29.820312 183.621094 C 32.152344 184.863281 34.367188 186.28125 36.472656 187.878906 C 37.101562 188.488281 37.847656 188.859375 38.710938 188.996094 C 39.5625 188.996094 40.167969 188.078125 41.085938 186.582031 L 41.332031 186.203125 C 53.027344 167.414062 64.808594 148.652344 76.679688 129.921875 C 82.101562 121.351562 87.019531 113.53125 92.257812 105.78125 C 92.941406 104.761719 93.210938 104.09375 93.101562 103.644531 C 92.988281 103.199219 92.4375 102.707031 91.261719 102.046875 C 83.242188 97.578125 75.191406 92.875 67.40625 88.320312 L 63.128906 85.828125 C 61.632812 85.058594 60.292969 84.078125 59.109375 82.890625 C 58.757812 82.488281 58.488281 82.039062 58.296875 81.539062 C 58.105469 81.042969 58.007812 80.527344 58.003906 79.996094 C 58 79.460938 58.085938 78.945312 58.265625 78.445312 C 58.445312 77.941406 58.707031 77.488281 59.050781 77.082031 C 59.375 76.582031 59.796875 76.191406 60.316406 75.898438 C 60.835938 75.609375 61.390625 75.457031 61.984375 75.4375 C 63.328125 75.574219 64.546875 76.027344 65.648438 76.800781 L 78.484375 84.207031 C 86.046875 88.566406 93.609375 92.917969 101.175781 97.265625 C 102.800781 98.195312 104.46875 99.03125 106.148438 99.859375 C 107.167969 100.363281 108.175781 100.863281 109.183594 101.390625 C 111.226562 102.503906 113.414062 103.070312 115.746094 103.085938 C 118.425781 103.03125 120.941406 102.363281 123.296875 101.085938 C 125.054688 100.207031 126.789062 99.277344 128.535156 98.351562 C 133.488281 95.535156 138.640625 93.148438 143.992188 91.191406 C 148.339844 89.644531 152.820312 88.828125 157.433594 88.742188 C 161.402344 88.710938 165.214844 89.453125 168.878906 90.976562 C 169.308594 91.167969 169.761719 91.269531 170.234375 91.277344 C 171.207031 91.175781 172.082031 90.828125 172.855469 90.230469 C 183.308594 83.847656 193.632812 80.664062 203.835938 80.675781 C 213.285156 80.675781 222.875 83.425781 232.238281 88.832031 C 236.976562 91.546875 241.757812 94.195312 246.527344 96.855469 C 250.125 98.84375 253.730469 100.84375 257.304688 102.863281 C 258.921875 103.871094 260.683594 104.40625 262.589844 104.472656 C 263.796875 104.414062 264.960938 104.148438 266.074219 103.675781 C 267.191406 103.207031 268.1875 102.558594 269.074219 101.734375 C 277.105469 95.132812 285.449219 88.632812 293.523438 82.351562 C 297.09375 79.566406 300.660156 76.773438 304.230469 73.976562 L 305.046875 73.316406 C 306.402344 72.199219 307.804688 71.082031 309.4375 71.082031 C 310.128906 71.125 310.777344 71.316406 311.378906 71.65625 C 311.980469 72 312.476562 72.453125 312.867188 73.023438 C 313.332031 73.496094 313.6875 74.039062 313.921875 74.660156 C 314.160156 75.277344 314.265625 75.917969 314.234375 76.578125 C 314.019531 78.601562 312.160156 80.03125 310.535156 81.292969 C 301.921875 87.996094 291.394531 96.128906 281.113281 103.714844 C 278.390625 105.710938 277.855469 106.828125 279.882812 109.777344 C 297.535156 135.664062 314.601562 161.167969 330.347656 184.851562 C 331.257812 186.214844 331.90625 186.773438 332.589844 186.773438 C 333.398438 186.660156 334.105469 186.335938 334.71875 185.800781 C 338.078125 183.363281 341.660156 181.128906 345.121094 178.964844 L 347.238281 177.632812 C 348.425781 176.796875 349.742188 176.335938 351.191406 176.25 C 351.929688 176.265625 352.613281 176.457031 353.25 176.824219 C 353.882812 177.195312 354.390625 177.695312 354.765625 178.328125 C 355.121094 178.777344 355.371094 179.277344 355.515625 179.832031 C 355.660156 180.386719 355.691406 180.945312 355.605469 181.511719 C 355.269531 183.1875 353.667969 184.335938 352.246094 185.273438 C 336.6875 195.261719 322.6875 204.265625 308.824219 214.164062 C 306.582031 215.730469 305.800781 216.667969 306.425781 219.75 C 306.796875 221.308594 306.992188 222.886719 307.007812 224.488281 C 307.019531 226.089844 306.855469 227.675781 306.507812 229.238281 C 306.164062 230.800781 305.648438 232.308594 304.960938 233.757812 C 304.273438 235.203125 303.433594 236.554688 302.4375 237.8125 C 298.382812 242.761719 292.257812 245.488281 285.167969 245.488281 L 284.285156 245.488281 L 282.648438 245.421875 C 281.773438 245.421875 281.082031 245.421875 280.933594 247.65625 C 280.140625 260.066406 271.617188 268.402344 259.722656 268.402344 C 256.847656 268.386719 254.046875 267.9375 251.3125 267.0625 C 249.070312 279.820312 241.398438 287.167969 230.109375 287.167969 C 225.632812 287.074219 221.332031 286.164062 217.207031 284.433594 C 214.789062 295.929688 206.554688 303.3125 196.050781 303.3125 C 193.671875 303.265625 191.347656 302.898438 189.074219 302.203125 C 186.800781 301.511719 184.664062 300.523438 182.667969 299.234375 C 179.25 297.125 176.179688 295.378906 173.066406 295.378906 C 170.425781 295.378906 167.691406 296.652344 164.476562 299.378906 C 162.898438 300.734375 161.136719 301.769531 159.183594 302.492188 C 157.230469 303.210938 155.214844 303.566406 153.132812 303.558594 Z M 159.550781 256.382812 C 166.425781 257.207031 171.871094 260.054688 175.230469 264.660156 C 178.589844 269.261719 179.710938 275.496094 178.140625 282.398438 C 178.039062 282.78125 177.910156 283.152344 177.761719 283.515625 C 177.3125 284.632812 177.167969 285.160156 178.152344 285.808594 C 179.136719 286.453125 180.394531 287.304688 181.433594 288.039062 C 185.464844 290.890625 189.273438 293.570312 194.191406 294.285156 C 194.625 294.394531 195.066406 294.46875 195.511719 294.507812 C 200.472656 294.507812 206.074219 290.933594 207.730469 286.6875 C 209.535156 282.097656 207.933594 277.941406 202.996094 274.402344 C 198.761719 271.316406 194.519531 268.242188 190.269531 265.171875 L 175.351562 254.292969 C 174.628906 253.855469 174.019531 253.292969 173.523438 252.609375 C 173.027344 251.925781 172.683594 251.171875 172.496094 250.347656 C 172.421875 249.742188 172.476562 249.148438 172.65625 248.5625 C 172.835938 247.980469 173.125 247.457031 173.527344 246.996094 C 173.890625 246.457031 174.355469 246.027344 174.925781 245.714844 C 175.5 245.398438 176.109375 245.234375 176.765625 245.222656 C 178.226562 245.320312 179.5 245.867188 180.582031 246.851562 C 181.253906 247.386719 181.984375 247.878906 182.6875 248.371094 L 184.019531 249.296875 L 191.683594 254.882812 C 200.777344 261.476562 209.863281 268.078125 218.941406 274.691406 C 221.265625 276.535156 223.855469 277.84375 226.714844 278.625 C 227.476562 278.800781 228.242188 278.886719 229.023438 278.878906 C 230.308594 278.824219 231.5625 278.59375 232.785156 278.191406 C 234.007812 277.789062 235.152344 277.230469 236.21875 276.515625 C 237.289062 275.800781 238.238281 274.953125 239.074219 273.972656 C 239.90625 272.996094 240.59375 271.925781 241.128906 270.757812 C 243.550781 265.5625 242.464844 262.234375 236.984375 258 C 224.171875 248.132812 211.382812 238.238281 198.613281 228.320312 C 196.867188 226.96875 195.152344 225.46875 194.964844 223.503906 C 194.9375 222.820312 195.050781 222.164062 195.300781 221.527344 C 195.546875 220.894531 195.914062 220.335938 196.398438 219.851562 C 196.773438 219.335938 197.246094 218.925781 197.808594 218.621094 C 198.371094 218.3125 198.972656 218.144531 199.613281 218.109375 C 201.191406 218.109375 202.5 219.226562 203.765625 220.34375 C 204.046875 220.578125 204.316406 220.8125 204.597656 221.023438 L 213.914062 228.429688 C 220.632812 233.816406 227.445312 239.199219 234.265625 244.515625 L 237.277344 246.886719 C 242.183594 250.75 247.269531 254.707031 252.585938 258.136719 C 254.558594 259.375 256.707031 259.992188 259.039062 259.976562 C 260.207031 259.960938 261.359375 259.804688 262.488281 259.503906 C 263.621094 259.207031 264.695312 258.773438 265.71875 258.210938 C 266.742188 257.644531 267.683594 256.964844 268.539062 256.171875 C 269.394531 255.375 270.140625 254.488281 270.777344 253.511719 C 273.992188 248.460938 272.300781 242.4375 266.296875 237.8125 C 258.996094 232.140625 238.597656 216.199219 238.597656 216.199219 C 231.878906 210.9375 225.160156 205.683594 218.4375 200.378906 C 217.027344 199.261719 215.503906 198.066406 215.335938 196.367188 C 215.289062 195.164062 215.683594 194.128906 216.523438 193.261719 C 216.957031 192.695312 217.492188 192.246094 218.132812 191.921875 C 218.769531 191.597656 219.449219 191.425781 220.164062 191.410156 C 221.621094 191.496094 222.941406 191.972656 224.117188 192.839844 C 224.675781 193.21875 225.214844 193.628906 225.730469 194.066406 L 240.78125 205.964844 C 252.476562 215.226562 264.5625 224.789062 276.554688 234.039062 C 277.800781 235.078125 279.179688 235.882812 280.695312 236.457031 C 282.214844 237.03125 283.78125 237.34375 285.402344 237.390625 C 289.234375 237.390625 292.816406 235.433594 295.753906 231.804688 C 300.234375 226.140625 298.988281 219.773438 292.292969 214.332031 C 255.65625 184.558594 225.675781 161.042969 197.988281 140.34375 C 195.210938 138.265625 193.507812 137.449219 192.039062 137.449219 C 190.226562 137.449219 188.34375 138.714844 185.722656 140.867188 C 182.542969 143.496094 179.441406 146.355469 176.4375 149.113281 C 170.683594 154.421875 164.722656 159.90625 157.824219 164.105469 C 155.808594 165.367188 153.660156 166.335938 151.378906 167.007812 C 149.09375 167.683594 146.765625 168.035156 144.382812 168.070312 C 142.824219 168.066406 141.28125 167.902344 139.757812 167.578125 C 138.234375 167.253906 136.757812 166.777344 135.332031 166.148438 C 133.90625 165.519531 132.558594 164.75 131.292969 163.839844 C 130.027344 162.933594 128.871094 161.902344 127.820312 160.753906 C 120.226562 152.609375 120.484375 143.816406 128.636719 133.082031 C 137.945312 120.792969 148.863281 110.425781 159.269531 101.03125 C 159.617188 100.71875 159.992188 100.433594 160.390625 100.183594 C 161.320312 99.578125 161.957031 99.132812 162.101562 98.316406 C 160.53125 98 158.945312 97.839844 157.34375 97.835938 C 153.539062 97.910156 149.878906 98.671875 146.367188 100.128906 C 140.410156 102.367188 134.707031 105.121094 129.253906 108.394531 C 127.324219 109.636719 125.261719 110.589844 123.066406 111.253906 C 120.871094 111.917969 118.625 112.269531 116.328125 112.304688 C 112.226562 112.226562 108.382812 111.199219 104.792969 109.21875 C 104.019531 108.75 103.183594 108.480469 102.285156 108.40625 C 101.164062 108.40625 100.445312 109.253906 99.316406 111.042969 C 89.152344 127.164062 78.953125 143.261719 68.71875 159.335938 L 54.324219 182.011719 C 53.5625 183.207031 52.613281 184.449219 51.648438 185.6875 C 49.464844 188.480469 47.222656 191.386719 47.550781 193.664062 C 47.875 195.945312 50.71875 197.429688 53.71875 198.914062 C 55.484375 199.703125 57.140625 200.671875 58.695312 201.820312 C 59.746094 202.855469 61.007812 203.449219 62.480469 203.597656 C 63.765625 203.597656 65.109375 202.804688 66.835938 201.015625 C 67.78125 200.003906 68.820312 199.09375 69.953125 198.292969 C 71.082031 197.492188 72.285156 196.808594 73.554688 196.25 C 74.824219 195.691406 76.136719 195.261719 77.492188 194.96875 C 78.847656 194.675781 80.21875 194.519531 81.609375 194.503906 C 82.574219 194.511719 83.535156 194.585938 84.492188 194.738281 C 85.445312 194.886719 86.386719 195.105469 87.308594 195.394531 C 88.230469 195.679688 89.128906 196.035156 89.996094 196.457031 C 90.867188 196.875 91.703125 197.359375 92.5 197.902344 C 93.296875 198.449219 94.050781 199.046875 94.761719 199.703125 C 95.46875 200.359375 96.125 201.0625 96.730469 201.816406 C 97.332031 202.570312 97.878906 203.363281 98.363281 204.195312 C 98.851562 205.03125 99.273438 205.894531 99.628906 206.792969 C 100.179688 208.15625 100.648438 209.550781 101.039062 210.96875 L 101.375 212.085938 C 105.285156 210.28125 109.390625 209.328125 113.695312 209.226562 C 124.371094 209.226562 131.539062 216.511719 133.351562 229.203125 C 133.566406 230.640625 133.8125 230.640625 134.023438 230.640625 C 134.53125 230.597656 135.027344 230.5 135.515625 230.351562 C 136.984375 229.976562 138.476562 229.792969 139.996094 229.792969 C 141.828125 229.796875 143.625 230.054688 145.382812 230.574219 C 147.972656 231.308594 150.335938 232.488281 152.476562 234.117188 C 154.617188 235.746094 156.386719 237.707031 157.78125 240.003906 C 160.792969 244.730469 161.363281 250.089844 159.550781 256.382812 Z M 159.203125 265.316406 C 157.886719 265.308594 156.632812 265.574219 155.433594 266.113281 C 154.234375 266.652344 153.203125 267.414062 152.335938 268.402344 C 149.097656 271.871094 146.332031 275.683594 144.046875 279.839844 C 143.640625 280.5625 143.332031 281.324219 143.128906 282.125 C 142.921875 282.925781 142.828125 283.742188 142.839844 284.566406 C 142.851562 285.394531 142.96875 286.207031 143.199219 287.003906 C 143.425781 287.796875 143.753906 288.550781 144.183594 289.257812 C 144.632812 290.007812 145.167969 290.691406 145.796875 291.300781 C 146.421875 291.910156 147.117188 292.433594 147.882812 292.863281 C 148.644531 293.292969 149.449219 293.617188 150.296875 293.839844 C 151.148438 294.058594 152.007812 294.167969 152.886719 294.164062 C 156.726562 294.164062 161.339844 291.707031 164.980469 287.738281 C 168.621094 283.773438 170.46875 279.359375 170.144531 275.707031 C 169.707031 270.769531 167.480469 267.628906 163.335938 266.101562 C 162 265.605469 160.625 265.351562 159.203125 265.339844 Z M 139.042969 238.628906 C 137.855469 238.613281 136.703125 238.8125 135.589844 239.222656 C 134.476562 239.632812 133.472656 240.226562 132.578125 241.007812 C 126.140625 246.824219 120.828125 253.527344 116.640625 261.117188 C 113.941406 265.921875 115.78125 271.796875 121.121094 275.429688 C 123.238281 277.023438 125.621094 277.886719 128.269531 278.019531 C 131 278.019531 133.554688 276.679688 135.828125 274.042969 C 140.308594 268.894531 144.417969 263.351562 148.449219 257.980469 L 149.839844 256.125 C 151.777344 253.542969 153.5 249.523438 150.722656 244.953125 C 148.082031 240.683594 144.664062 238.609375 140.261719 238.609375 L 139.871094 238.609375 Z M 112.632812 217.648438 C 110.828125 217.707031 109.117188 218.128906 107.492188 218.917969 C 105.871094 219.707031 104.480469 220.792969 103.324219 222.175781 C 100.289062 225.527344 97.5 229.246094 94.789062 232.832031 C 93.828125 234.117188 92.851562 235.414062 91.867188 236.6875 C 87.117188 242.832031 87.253906 249.367188 92.214844 253.734375 C 93.375 254.808594 94.691406 255.640625 96.160156 256.230469 C 97.628906 256.816406 99.15625 257.125 100.738281 257.152344 C 102.648438 257.097656 104.464844 256.648438 106.179688 255.8125 C 107.898438 254.972656 109.367188 253.820312 110.582031 252.347656 C 114.109375 248.382812 117.304688 244.015625 120.484375 239.792969 L 122.925781 236.519531 C 123.589844 235.648438 124.070312 234.683594 124.363281 233.625 C 124.65625 232.570312 124.738281 231.496094 124.617188 230.40625 C 125.054688 225.359375 122.691406 221.617188 117.390625 218.824219 C 115.902344 218.035156 114.316406 217.644531 112.632812 217.648438 Z M 81.160156 203.226562 C 79.082031 203.238281 77.214844 203.871094 75.5625 205.125 C 69.5 209.59375 65.726562 215.058594 64.359375 221.402344 C 64.285156 221.820312 64.230469 222.242188 64.199219 222.667969 C 64.164062 223.089844 64.15625 223.515625 64.167969 223.9375 C 64.183594 224.363281 64.21875 224.785156 64.277344 225.207031 C 64.335938 225.628906 64.417969 226.042969 64.519531 226.457031 C 64.621094 226.867188 64.746094 227.273438 64.894531 227.671875 C 65.039062 228.074219 65.207031 228.464844 65.394531 228.84375 C 65.582031 229.226562 65.789062 229.597656 66.015625 229.957031 C 66.242188 230.316406 66.488281 230.660156 66.753906 230.996094 C 67.019531 231.328125 67.300781 231.644531 67.597656 231.949219 C 67.894531 232.253906 68.210938 232.539062 68.539062 232.808594 C 68.867188 233.078125 69.210938 233.332031 69.566406 233.566406 C 69.921875 233.796875 70.289062 234.011719 70.667969 234.207031 C 71.046875 234.402344 71.433594 234.578125 71.832031 234.730469 C 72.226562 234.882812 72.632812 235.015625 73.042969 235.125 C 73.453125 235.238281 73.871094 235.324219 74.292969 235.390625 C 74.710938 235.457031 75.136719 235.503906 75.5625 235.523438 C 76.578125 235.523438 77.570312 235.367188 78.539062 235.054688 C 83.648438 233.390625 92.472656 220.878906 92.472656 215.359375 C 92.472656 210.46875 90.457031 206.859375 86.378906 204.636719 C 84.761719 203.71875 83.023438 203.25 81.160156 203.226562 Z M 191.929688 128.378906 C 195.535156 128.378906 199.386719 130.066406 204.429688 133.875 C 231.644531 154.421875 260.429688 177.074219 297.871094 207.328125 C 298.601562 208.089844 299.496094 208.546875 300.546875 208.691406 C 301.402344 208.617188 302.148438 208.292969 302.785156 207.71875 C 306.671875 204.804688 310.726562 201.964844 314.636719 199.226562 L 318.421875 196.582031 C 324.851562 192.113281 324.851562 192.113281 320.472656 185.53125 C 304.550781 161.871094 288.617188 138.207031 272.667969 114.539062 C 272.46875 114.230469 272.289062 113.914062 272.121094 113.589844 C 271.5625 112.539062 271.167969 111.902344 270.496094 111.902344 C 270.0625 111.9375 269.664062 112.078125 269.296875 112.316406 C 267.3125 113.527344 265.152344 114.136719 262.824219 114.148438 C 259.140625 114.148438 255.644531 112.449219 253.003906 110.984375 L 242.015625 104.820312 C 236.863281 101.9375 231.722656 99.042969 226.546875 96.171875 C 222.914062 94.167969 219.09375 92.617188 215.085938 91.527344 C 211.078125 90.433594 207 89.832031 202.847656 89.714844 C 198.671875 89.949219 194.585938 90.691406 190.59375 91.941406 C 186.601562 93.191406 182.824219 94.910156 179.261719 97.097656 C 170.222656 102.539062 162.796875 110.09375 155.605469 117.386719 C 154.351562 118.660156 153.097656 119.945312 151.832031 121.207031 L 148.472656 124.480469 C 142.972656 129.875 137.273438 135.449219 133.285156 142.222656 C 129.824219 148.121094 131.046875 152.824219 137.003906 156.621094 C 139.316406 158.203125 141.871094 159.023438 144.675781 159.078125 C 148.269531 159.078125 152.046875 157.46875 156.234375 154.164062 C 163.660156 148.296875 170.90625 141.875 177.90625 135.753906 L 178.542969 135.207031 C 184.066406 130.378906 187.929688 128.425781 191.929688 128.425781 Z M 191.929688 128.378906 " fill-opacity="1" fill-rule="nonzero"/></g></svg>