<svg xmlns="http://www.w3.org/2000/svg" xmlns:xlink="http://www.w3.org/1999/xlink" width="500" zoomAndPan="magnify" viewBox="0 0 375 374.999991" height="500" preserveAspectRatio="xMidYMid meet" version="1.0"><defs><clipPath id="7102ae7f43"><path d="M 31 32.351562 L 342 32.351562 L 342 342.847656 L 31 342.847656 Z M 31 32.351562 " clip-rule="nonzero"/></clipPath><clipPath id="2bb61744a0"><path d="M 0 0 L 112.5 0 L 112.5 112.5 L 0 112.5 Z M 0 0 " clip-rule="nonzero"/></clipPath><clipPath id="8686e4abb4"><path d="M 17.25 0 L 95.25 0 C 99.824219 0 104.210938 1.816406 107.449219 5.050781 C 110.683594 8.289062 112.5 12.675781 112.5 17.25 L 112.5 95.25 C 112.5 99.824219 110.683594 104.210938 107.449219 107.449219 C 104.210938 110.683594 99.824219 112.5 95.25 112.5 L 17.25 112.5 C 12.675781 112.5 8.289062 110.683594 5.050781 107.449219 C 1.816406 104.210938 0 99.824219 0 95.25 L 0 17.25 C 0 12.675781 1.816406 8.289062 5.050781 5.050781 C 8.289062 1.816406 12.675781 0 17.25 0 Z M 17.25 0 " clip-rule="nonzero"/></clipPath><clipPath id="f4588a5431"><path d="M 0 0 L 112.5 0 L 112.5 112.5 L 0 112.5 Z M 0 0 " clip-rule="nonzero"/></clipPath><clipPath id="d398984fba"><path d="M 17.25 0 L 95.25 0 C 99.824219 0 104.210938 1.816406 107.449219 5.050781 C 110.683594 8.289062 112.5 12.675781 112.5 17.25 L 112.5 95.25 C 112.5 99.824219 110.683594 104.210938 107.449219 107.449219 C 104.210938 110.683594 99.824219 112.5 95.25 112.5 L 17.25 112.5 C 12.675781 112.5 8.289062 110.683594 5.050781 107.449219 C 1.816406 104.210938 0 99.824219 0 95.25 L 0 17.25 C 0 12.675781 1.816406 8.289062 5.050781 5.050781 C 8.289062 1.816406 12.675781 0 17.25 0 Z M 17.25 0 " clip-rule="nonzero"/></clipPath><clipPath id="c78ce79cb4"><rect x="0" width="113" y="0" height="113"/></clipPath></defs><g clip-path="url(#7102ae7f43)"><path fill="#000000" d="M 127.707031 196.738281 L 127.707031 194.226562 C 121.78125 192.492188 117.351562 187.3125 116.773438 180.847656 C 116.558594 178.425781 118.34375 176.289062 120.765625 176.070312 C 123.183594 175.859375 125.320312 177.644531 125.535156 180.066406 C 125.835938 183.421875 128.710938 186.050781 132.085938 186.050781 C 135.71875 186.050781 138.675781 183.09375 138.675781 179.457031 C 138.675781 176.695312 135.980469 175.136719 130.265625 172.460938 C 124.5625 169.796875 116.757812 166.148438 116.757812 157.457031 C 116.757812 150.503906 121.386719 144.617188 127.726562 142.710938 L 127.726562 140.175781 C 127.726562 137.742188 129.695312 135.773438 132.121094 135.773438 C 134.550781 135.773438 136.519531 137.746094 136.519531 140.175781 L 136.519531 142.6875 C 142.445312 144.421875 146.875 149.597656 147.453125 156.066406 C 147.667969 158.488281 145.882812 160.625 143.460938 160.839844 C 141.050781 161.054688 138.90625 159.269531 138.691406 156.847656 C 138.390625 153.492188 135.515625 150.863281 132.140625 150.863281 C 128.507812 150.863281 125.550781 153.820312 125.550781 157.457031 C 125.550781 160.242188 128.253906 161.808594 133.988281 164.488281 C 139.675781 167.148438 147.46875 170.789062 147.46875 179.457031 C 147.46875 186.410156 142.839844 192.296875 136.503906 194.203125 L 136.503906 196.738281 C 136.503906 199.167969 134.53125 201.140625 132.105469 201.140625 C 129.675781 201.140625 127.707031 199.167969 127.707031 196.738281 Z M 338.160156 218.894531 C 344.660156 230.160156 340.789062 244.613281 329.535156 251.113281 L 225.945312 310.953125 C 221.453125 313.5625 216.464844 314.894531 211.414062 314.894531 C 208.886719 314.894531 206.34375 314.5625 203.839844 313.886719 L 138.359375 296.347656 C 134.628906 295.535156 130.386719 296.265625 126.273438 297.441406 L 135.414062 313.28125 C 136.628906 315.386719 135.90625 318.078125 133.804688 319.292969 L 94.0625 342.257812 C 93.390625 342.648438 92.628906 342.847656 91.863281 342.847656 C 91.484375 342.847656 91.101562 342.796875 90.726562 342.695312 C 89.597656 342.394531 88.640625 341.65625 88.054688 340.644531 L 31.597656 242.785156 C 30.382812 240.679688 31.101562 237.988281 33.207031 236.773438 L 72.945312 213.808594 C 73.957031 213.226562 75.15625 213.066406 76.285156 213.367188 C 77.410156 213.671875 78.371094 214.410156 78.953125 215.417969 L 87.15625 229.636719 L 112.371094 215.078125 C 94.011719 207.292969 81.519531 189.085938 81.519531 168.464844 C 81.519531 143.039062 100.34375 121.9375 124.773438 118.371094 C 122.675781 115.171875 121.472656 111.363281 121.472656 107.339844 L 121.472656 87.582031 C 121.472656 87.570312 121.476562 87.558594 121.476562 87.546875 C 121.476562 87.449219 121.484375 87.351562 121.488281 87.257812 C 121.492188 87.207031 121.496094 87.15625 121.5 87.109375 C 121.511719 87.015625 121.527344 86.921875 121.542969 86.832031 C 121.550781 86.78125 121.558594 86.726562 121.566406 86.675781 C 121.585938 86.597656 121.605469 86.519531 121.628906 86.4375 C 121.644531 86.378906 121.660156 86.316406 121.679688 86.253906 C 121.699219 86.191406 121.722656 86.128906 121.746094 86.066406 C 121.773438 85.992188 121.800781 85.917969 121.832031 85.847656 C 121.851562 85.796875 121.878906 85.75 121.902344 85.699219 C 121.941406 85.617188 121.980469 85.535156 122.023438 85.453125 C 122.046875 85.410156 122.078125 85.367188 122.101562 85.324219 C 122.152344 85.242188 122.199219 85.160156 122.253906 85.082031 C 122.261719 85.074219 122.265625 85.0625 122.273438 85.050781 L 158.027344 34.21875 C 158.851562 33.050781 160.195312 32.351562 161.625 32.351562 L 300.21875 32.351562 C 301.652344 32.351562 302.992188 33.046875 303.816406 34.21875 L 339.570312 85.050781 C 339.578125 85.058594 339.582031 85.070312 339.589844 85.082031 C 339.644531 85.160156 339.691406 85.242188 339.742188 85.320312 C 339.769531 85.367188 339.796875 85.410156 339.820312 85.453125 C 339.863281 85.53125 339.902344 85.617188 339.941406 85.695312 C 339.964844 85.746094 339.992188 85.796875 340.015625 85.84375 C 340.042969 85.917969 340.070312 85.992188 340.097656 86.066406 C 340.121094 86.128906 340.144531 86.191406 340.164062 86.253906 C 340.183594 86.3125 340.199219 86.375 340.214844 86.4375 C 340.234375 86.515625 340.257812 86.59375 340.277344 86.675781 C 340.289062 86.726562 340.292969 86.777344 340.300781 86.828125 C 340.316406 86.921875 340.335938 87.015625 340.34375 87.109375 C 340.347656 87.15625 340.351562 87.207031 340.355469 87.253906 C 340.359375 87.351562 340.367188 87.449219 340.367188 87.546875 C 340.367188 87.558594 340.371094 87.570312 340.371094 87.582031 L 340.371094 107.339844 C 340.371094 114.855469 336.238281 121.417969 330.132812 124.882812 L 330.132812 210.625 C 333.355469 212.605469 336.144531 215.394531 338.164062 218.894531 Z M 321.335938 127.457031 C 320.976562 127.476562 320.613281 127.488281 320.25 127.488281 L 309.675781 127.488281 C 303.316406 127.488281 297.644531 124.515625 293.953125 119.890625 C 290.261719 124.515625 284.589844 127.488281 278.230469 127.488281 L 267.65625 127.488281 C 261.054688 127.488281 255.414062 124.597656 251.878906 119.960938 C 248.1875 124.546875 242.535156 127.488281 236.210938 127.488281 L 225.636719 127.488281 C 219.277344 127.488281 213.601562 124.515625 209.914062 119.890625 C 206.222656 124.515625 200.550781 127.488281 194.191406 127.488281 L 183.613281 127.488281 C 177.257812 127.488281 171.582031 124.515625 167.894531 119.890625 C 165.738281 122.589844 162.910156 124.722656 159.664062 126.035156 C 165.667969 129.949219 170.789062 135.105469 174.667969 141.136719 L 227.503906 141.136719 C 229.933594 141.136719 231.902344 143.105469 231.902344 145.535156 L 231.902344 187.6875 C 231.902344 190.117188 229.933594 192.089844 227.503906 192.089844 L 176.914062 192.089844 C 173.648438 198.308594 169.085938 203.808594 163.460938 208.222656 L 218.832031 223.058594 C 224.292969 224.527344 228.863281 228.050781 231.703125 232.972656 C 234.542969 237.902344 235.300781 243.625 233.835938 249.085938 C 233.496094 250.347656 233.050781 251.554688 232.515625 252.691406 L 247.304688 244.148438 L 247.304688 154.175781 C 247.304688 151.746094 249.273438 149.777344 251.699219 149.777344 L 300.503906 149.777344 C 302.933594 149.777344 304.902344 151.746094 304.902344 154.175781 L 304.902344 210.875 L 305.960938 210.261719 C 310.792969 207.472656 316.210938 206.597656 321.335938 207.390625 Z M 296.105469 158.578125 L 256.097656 158.578125 L 256.097656 239.066406 L 296.105469 215.957031 Z M 182.707031 168.464844 C 182.707031 173.589844 181.945312 178.570312 180.515625 183.289062 L 223.105469 183.289062 L 223.105469 149.9375 L 179.183594 149.9375 C 181.449219 155.679688 182.707031 161.925781 182.707031 168.464844 Z M 138.542969 118.257812 C 139.457031 118.375 140.363281 118.515625 141.261719 118.679688 C 141.304688 118.679688 141.347656 118.679688 141.390625 118.683594 C 141.457031 118.683594 141.523438 118.6875 141.59375 118.6875 L 152.171875 118.6875 C 158.414062 118.6875 163.496094 113.597656 163.496094 107.339844 L 163.496094 91.980469 L 130.269531 91.980469 L 130.269531 107.339844 C 130.269531 112.414062 133.664062 116.878906 138.542969 118.257812 Z M 215.285156 83.179688 L 246.558594 83.179688 L 238.09375 41.152344 L 223.734375 41.152344 Z M 289.554688 92.050781 L 256.328125 92.5625 L 256.328125 106.152344 C 256.589844 106.714844 256.738281 107.335938 256.738281 107.996094 C 256.738281 114.191406 261.328125 118.6875 267.652344 118.6875 L 278.230469 118.6875 C 284.472656 118.6875 289.554688 113.597656 289.554688 107.339844 Z M 214.308594 107.339844 C 214.308594 113.597656 219.390625 118.6875 225.632812 118.6875 L 236.210938 118.6875 C 242.453125 118.6875 247.535156 113.597656 247.535156 107.339844 L 247.535156 91.980469 L 214.308594 91.980469 Z M 172.289062 91.980469 L 172.289062 107.339844 C 172.289062 113.597656 177.371094 118.6875 183.613281 118.6875 L 194.191406 118.6875 C 200.433594 118.6875 205.515625 113.597656 205.515625 107.339844 L 205.515625 91.980469 Z M 331.574219 91.980469 L 298.351562 91.980469 L 298.351562 107.339844 C 298.351562 113.597656 303.429688 118.6875 309.675781 118.6875 L 320.25 118.6875 C 326.496094 118.6875 331.574219 113.597656 331.574219 107.339844 Z M 276.675781 41.152344 L 296.726562 83.179688 L 327.5 83.179688 L 297.9375 41.152344 Z M 247.066406 41.152344 L 255.652344 83.769531 L 287.03125 83.285156 L 266.929688 41.152344 Z M 214.761719 41.152344 L 194.917969 41.152344 L 174.867188 83.179688 L 206.3125 83.179688 Z M 134.347656 83.179688 L 165.117188 83.179688 L 185.171875 41.152344 L 163.90625 41.152344 Z M 122.578125 209.183594 L 128.054688 206.023438 C 133.734375 202.746094 141.417969 201.953125 147.675781 203.992188 L 152.121094 205.183594 C 160.078125 200.851562 166.230469 194.222656 169.9375 186.339844 C 170.042969 186.011719 170.191406 185.699219 170.367188 185.410156 C 172.667969 180.1875 173.910156 174.441406 173.910156 168.464844 C 173.910156 145.398438 155.15625 126.632812 132.105469 126.632812 C 109.050781 126.632812 90.316406 145.398438 90.316406 168.464844 C 90.316406 187.933594 103.792969 204.804688 122.578125 209.183594 Z M 125.597656 313.871094 L 81.769531 237.90625 C 81.757812 237.886719 81.746094 237.867188 81.734375 237.847656 C 81.722656 237.828125 81.714844 237.808594 81.703125 237.789062 L 73.535156 223.632812 L 41.410156 242.195312 L 93.472656 332.433594 Z M 330.542969 223.292969 C 328.582031 219.890625 325.394531 217.453125 321.566406 216.429688 C 317.742188 215.40625 313.761719 215.921875 310.359375 217.886719 L 253.957031 250.464844 C 253.886719 250.507812 253.820312 250.550781 253.746094 250.589844 L 234.367188 261.78125 C 226.140625 266.535156 222.816406 267.667969 216.660156 266.015625 L 208.167969 263.785156 C 208.15625 263.785156 208.148438 263.78125 208.140625 263.777344 L 208.136719 263.777344 C 208.136719 263.777344 208.136719 263.777344 208.132812 263.777344 C 208.03125 263.75 207.933594 263.714844 207.835938 263.683594 L 154.535156 249.578125 C 152.1875 248.957031 150.789062 246.546875 151.410156 244.199219 C 152.03125 241.847656 154.4375 240.449219 156.785156 241.070312 L 210.574219 255.304688 C 210.597656 255.308594 210.617188 255.316406 210.640625 255.324219 C 217.199219 256.910156 223.621094 253.21875 225.339844 246.804688 C 226.199219 243.609375 225.753906 240.265625 224.085938 237.375 C 222.417969 234.484375 219.742188 232.421875 216.550781 231.5625 L 145.28125 212.464844 C 145.195312 212.441406 145.113281 212.414062 145.03125 212.386719 C 141.148438 211.09375 135.976562 211.609375 132.453125 213.644531 L 91.554688 237.261719 L 121.757812 289.613281 C 127.613281 287.757812 134.0625 286.363281 140.367188 287.777344 C 140.425781 287.792969 140.484375 287.804688 140.542969 287.820312 L 206.117188 305.386719 C 211.359375 306.796875 216.832031 306.070312 221.542969 303.339844 L 325.140625 243.492188 C 332.191406 239.417969 334.617188 230.355469 330.542969 223.292969 Z M 330.542969 223.292969 " fill-opacity="1" fill-rule="nonzero"/></g><g clip-path="url(#2bb61744a0)"><g clip-path="url(#8686e4abb4)"><g transform="matrix(1, 0, 0, 1, 0, 0)"><g clip-path="url(#c78ce79cb4)"><g clip-path="url(#f4588a5431)"><g clip-path="url(#d398984fba)"><path fill="#ffffff" d="M 0 0 L 112.5 0 L 112.5 112.5 L 0 112.5 Z M 0 0 " fill-opacity="1" fill-rule="nonzero"/></g></g></g></g></g></g></svg>